<?xml version="1.0" encoding="UTF-8"?>
<svg version="1.1" xmlns="http://www.w3.org/2000/svg" width="20" height="20">
<path d="M0 0 C6.6 0 13.2 0 20 0 C20 6.6 20 13.2 20 20 C13.4 20 6.8 20 0 20 C0 13.4 0 6.8 0 0 Z " fill="#ECEEF2" transform="translate(0,0)"/>
<path d="M0 0 C6.6 0 13.2 0 20 0 C20 2.31 20 4.62 20 7 C17.03824877 6.38722388 15.61941217 5.74627478 13 4 C10.78415454 3.55296766 8.55158039 3.18536758 6.3125 2.875 C4.54326172 2.62363281 4.54326172 2.62363281 2.73828125 2.3671875 C1.38283203 2.18542969 1.38283203 2.18542969 0 2 C0 1.34 0 0.68 0 0 Z " fill="#FEFEFE" transform="translate(0,0)"/>
<path d="M0 0 C0.33 0.99 0.66 1.98 1 3 C1.99 2.67 2.98 2.34 4 2 C3.67 2.763125 3.34 3.52625 3 4.3125 C1.82563314 6.99069135 1.82563314 6.99069135 2 10 C1.67 10.99 1.34 11.98 1 13 C0.01 13 -0.98 13 -2 13 C-2.05416188 11.39620659 -2.09286638 9.79188594 -2.125 8.1875 C-2.14820313 7.29417969 -2.17140625 6.40085937 -2.1953125 5.48046875 C-2 3 -2 3 0 0 Z " fill="#C3CCDD" transform="translate(2,6)"/>
<path d="M0 0 C0.33 0 0.66 0 1 0 C1.125 7.625 1.125 7.625 0 11 C-1.32 11 -2.64 11 -4 11 C-4 9.68 -4 8.36 -4 7 C-4.33 7.66 -4.66 8.32 -5 9 C-5.99 8.67 -6.98 8.34 -8 8 C-7.34 6.35 -6.68 4.7 -6 3 C-5.34 3 -4.68 3 -4 3 C-4 3.66 -4 4.32 -4 5 C-3.34 5 -2.68 5 -2 5 C-1.67 5.66 -1.34 6.32 -1 7 C-1.309375 5.824375 -1.309375 5.824375 -1.625 4.625 C-1.74875 3.75875 -1.8725 2.8925 -2 2 C-1.34 1.34 -0.68 0.68 0 0 Z " fill="#9BB0C7" transform="translate(18,9)"/>
<path d="M0 0 C0.93972656 0.23396484 0.93972656 0.23396484 1.8984375 0.47265625 C3.12433594 0.76462891 3.12433594 0.76462891 4.375 1.0625 C5.59316406 1.35833984 5.59316406 1.35833984 6.8359375 1.66015625 C9.04161284 2.22109319 9.04161284 2.22109319 11 1 C11 2.32 11 3.64 11 5 C6.38 5 1.76 5 -3 5 C-2.01 4.34 -1.02 3.68 0 3 C0 2.01 0 1.02 0 0 Z " fill="#F7F8F9" transform="translate(3,15)"/>
<path d="M0 0 C0.99 0.33 1.98 0.66 3 1 C2.34 2.65 1.68 4.3 1 6 C0.01 6 -0.98 6 -2 6 C-1.49396008 3.83125748 -1.00016187 2.00032373 0 0 Z " fill="#AAB5C8" transform="translate(2,13)"/>
<path d="M0 0 C0.66 0 1.32 0 2 0 C2 0.66 2 1.32 2 2 C2.66 2 3.32 2 4 2 C4 2.66 4 3.32 4 4 C3.01 4.66 2.02 5.32 1 6 C0.01 5.67 -0.98 5.34 -2 5 C-1.34 3.35 -0.68 1.7 0 0 Z " fill="#A8B7D3" transform="translate(12,12)"/>
</svg>
